<?xml version="1.0" encoding="utf-8"?>
<!-- Generator: Adobe Illustrator 16.0.3, SVG Export Plug-In . SVG Version: 6.00 Build 0)  -->
<!DOCTYPE svg PUBLIC "-//W3C//DTD SVG 1.1//EN" "http://www.w3.org/Graphics/SVG/1.1/DTD/svg11.dtd">
<svg version="1.1" id="Layer_1" xmlns="http://www.w3.org/2000/svg" xmlns:xlink="http://www.w3.org/1999/xlink" x="0px" y="0px"
	 width="500px" height="500px" viewBox="0 0 500 500" enable-background="new 0 0 500 500" xml:space="preserve">
<g>
	<path fill="#00A9CA" d="M476.474,230.787c0,6.426,0,12.852,0,19.277c-0.133,0.975-0.346,1.945-0.394,2.923
		c-0.573,12.019-2.01,23.943-4.735,35.652c-16.881,72.49-58.494,125.56-125.197,158.746c-20.371,10.135-42.15,15.862-64.471,19.774
		c-5.023,0.882-9.98,2.142-14.97,3.228c-14.077,0-28.152,0-42.229,0c-1.087-0.336-2.153-0.803-3.268-0.986
		c-6.86-1.133-13.773-1.99-20.595-3.326c-92.26-18.063-164.111-91.67-179.961-184.243c-0.978-5.707-2.123-11.386-3.19-17.078
		c0-13.464,0-26.929,0-40.394c0.479-1.603,1.1-3.179,1.403-4.813c0.671-3.607,1.131-7.253,1.766-10.867
		c17.187-97.73,91.68-171.854,189.491-188.591c5.717-0.979,11.405-2.13,17.107-3.2c14.229,0,28.458,0,42.688,0
		c5.463,1.058,10.912,2.194,16.394,3.163c56.488,9.983,103.156,37.013,139.674,81.18c26.107,31.575,42.332,67.755,48.221,108.404
		C475.224,216.648,475.731,223.735,476.474,230.787z M116.531,125.252c1.349,0.205,2.071,0.205,2.71,0.434
		c1.51,0.542,3.004,1.144,4.462,1.815c1.249,0.575,1.939,0.271,2.464-1.008c0.988-2.402,1.968-4.825,3.196-7.107
		c2.884-5.36,6.354-7.003,12.328-5.822c2.089,0.413,3.148-0.174,3.689-2.226c0.799-3.024,2.997-4.487,6.004-4.865
		c3.712-0.466,7.42-0.948,11.134-1.381c5.285-0.616,8.103,1.166,9.639,6.279c0.635,2.112,0.929,4.329,1.373,6.5
		c0.677,3.305,1.208,6.718,3.894,9.113c8.161,7.281,16.362,14.519,24.614,21.695c0.479,0.417,1.545,0.156,2.338,0.211
		c0.015-0.785,0.337-1.756-0.007-2.326c-2.886-4.779-5.897-9.482-8.859-14.216c-0.434-0.693-0.804-1.426-1.188-2.113
		c5.089-3.87,7.586-3.96,12.555-0.61c5.036,3.395,7.841,8.282,9.225,14.042c0.568,2.368,0.741,4.83,1.181,7.232
		c0.11,0.604,0.55,1.149,0.839,1.722c0.691-0.365,1.646-0.558,2.022-1.129c1.004-1.526,1.753-3.22,2.615-4.84
		c0.887-1.663,1.786-3.318,2.917-5.418c0.679,1.206,1.108,1.979,1.544,2.747c1.431,2.527,2.729,5.142,4.331,7.556
		c1.604,2.418,3.458,2.721,6.113,1.417c-0.023-0.147-0.008-0.32-0.08-0.438c-0.159-0.258-0.33-0.525-0.553-0.724
		c-2.558-2.272-3.504-5.325-4.041-8.534c-0.103-0.615,0.236-1.852,0.522-1.899c2.823-0.475,5.848-1.529,8.492-0.949
		c7.133,1.563,12.785,5.806,17.832,11.082c3.996,4.18,8.486,7.895,12.845,11.718c1.825,1.603,2.631,3.409,1.729,5.681
		c-0.703,1.767-1.647,3.442-2.537,5.131c-2.106,4-4.793,5.38-9.133,4.251c-3.914-1.02-7.726-2.432-11.59-3.646
		c-1.307-0.412-1.624-1.212-1.188-2.463c0.657-1.876,1.312-3.757,1.887-5.659c1.756-5.813,0.95-7.684-4.186-10.785
		c-1.469-0.887-2.173-0.574-3.184,0.665c-3.377,4.143-6.814,8.244-10.396,12.209c-2.611,2.891-5.68,5.379-8.19,8.348
		c-2.25,2.661-4.404,5.543-5.909,8.662c-2.556,5.293-0.877,9.814,4.324,12.526c2.216,1.156,4.666,1.896,7.059,2.676
		c3.782,1.231,6.094,3.628,6.648,7.648c0.592,4.298,3.813,6.924,6.427,10.413c0.53-1.24,0.919-2.056,1.23-2.898
		c2.561-6.917,2.563-14.08,2.04-21.297c-0.292-4.041-0.677-8.084-0.724-12.13c-0.05-4.292,1.817-5.639,5.857-4.039
		c3.533,1.398,6.853,3.345,10.255,5.072c5.576,2.832,11.199,5.576,16.688,8.566c3.056,1.663,6.301,3.321,8.732,5.719
		c9.203,9.071,18.111,18.443,27.129,27.706c0.267,0.273,0.535,0.555,0.746,0.869c1.193,1.778,0.814,2.807-1.281,3.246
		c-4.225,0.885-7.969-0.024-10.754-3.452c-1.776-2.188-3.276-4.604-4.875-6.936c-0.59-0.862-1.037-1.517-2.369-1.001
		c-3.488,1.348-7.106,2.36-10.576,3.751c-2.602,1.042-5.172,2.277-7.522,3.788c-1.349,0.865-2.236,2.451-3.332,3.714
		c0.162,0.169,0.322,0.339,0.483,0.508c1.066-0.547,2.132-1.099,3.201-1.64c4.883-2.466,7.066-1.792,9.849,2.812
		c0.426,0.703,1.43,1.168,2.266,1.488c2.303,0.883,4.662,1.632,7.187,2.499c-1.917,2.921-3.851,5.002-6.775,5.957
		c-2.617,0.854-5.221,1.748-7.832,2.622c-3.121,1.044-5.664,2.839-7.846,5.35c-6.941,7.986-12.896,16.418-15.409,27.005
		c-1.645,6.922-6.421,11.871-12.078,15.961c-3.858,2.791-6.422,6.445-6.586,11.279c-0.09,2.635,0.67,5.289,0.826,7.947
		c0.154,2.661,0.033,5.34,0.033,8.01c-0.218,0.135-0.437,0.268-0.654,0.399c-2.706-2.647-5.604-5.131-8.077-7.979
		c-4.828-5.559-10.652-8.297-17.932-6.461c-4.318,1.088-8.318,1.031-12.577-0.299c-5.833-1.824-11.126-0.529-15.651,3.817
		c-7.144,6.861-10.085,20.57,2.749,28.252c3.415,2.043,6.267,2.644,10.004,1.041c4.035-1.729,8.378-2.733,12.537-4.041
		c1.686,3.58,2.04,8.529,0.975,11.89c-1.682,5.301-0.591,6.801,5.032,6.914c0.307,0.006,0.627-0.05,0.915,0.024
		c3.529,0.916,7.177,1.539,10.544,2.871c3.399,1.344,4.355,4.289,3.271,7.787c-0.408,1.313-0.886,2.613-1.16,3.955
		c-0.802,3.904,0.63,7.033,4.265,8.699c2.77,1.271,5.668,2.313,8.593,3.176c4.273,1.262,8.115,0.268,11.554-2.629
		c2.216-1.865,4.522-3.668,6.975-5.205c4.262-2.674,8.711-2.777,13.373-0.744c1.562,0.68,3.557,0.824,5.271,0.596
		c4.163-0.551,8.258-1.602,12.416-2.202c10.194-1.472,20.387-1.646,30.002,2.627c5.549,2.465,11.166,3.069,17.02,2.522
		c6.793-0.637,12.275,1.34,16.363,7.066c1.986,2.785,4.871,4.057,8.463,3.231c2.307-0.528,4.697-0.7,6.996-1.258
		c6.535-1.578,13.039-3.291,19.564-4.91c3.487-0.867,6.457,0.066,9.008,2.623c1.36,1.361,1.569,2.476,0.301,4.101
		c-5.162,6.608-9.328,13.811-12.266,21.686c-0.304,0.812-0.597,2.182-0.187,2.598c1.133,1.152,2.031-0.104,2.853-0.838
		c1.827-1.629,3.639-3.274,5.422-4.95c37.778-35.507,60.785-78.705,67.762-130.236c0.123-0.902,0.016-1.838,0.016-2.758
		c-0.186-0.08-0.371-0.158-0.555-0.238c-1.254,1.404-2.553,2.771-3.746,4.223c-1.408,1.709-2.59,3.621-4.104,5.222
		c-4.078,4.305-7.912,4.2-11.966-0.16c-0.416-0.449-0.829-0.906-1.178-1.406c-9.311-13.375-15.385-27.951-16.455-44.382
		c-0.59-9.075-0.696-18.22-1.967-27.199c-0.869-6.136-3.373-12.04-5.184-18.178c-0.23,0.1-0.644,0.245-1.025,0.445
		c-3.73,1.97-6.211,1.942-9.213-0.921c-2.402-2.29-4.66-4.89-6.353-7.728c-2.411-4.045-2.352-8.385-0.168-12.716
		c3.351-6.64,2.412-8.336-4.95-9.563c-6.043-1.006-7.422-2.819-8.021-8.923c-0.342-3.485-1.52-6.887-2.32-10.326
		c-0.373,0.045-0.743,0.09-1.116,0.136c0,2.882,0,5.763,0,9.106c-5.353-2.03-10.132-3.844-14.912-5.657
		c0.151,0.989,0.512,1.56,0.912,2.102c1.403,1.911,2.889,3.768,4.182,5.751c0.285,0.438,0.104,1.456-0.24,1.938
		c-0.25,0.352-1.317,0.56-1.684,0.317c-3.697-2.437-7.574-4.708-9.48-9.043c-1.321-3.008-2.75-5.971-4.057-8.987
		c-0.848-1.963-1.775-3.937-2.25-6.001c-0.256-1.114-0.025-2.882,0.711-3.522c0.691-0.604,2.346-0.203,3.559-0.074
		c0.566,0.061,1.095,0.519,1.634,0.807c6.272,3.355,12.541,6.716,18.815,10.067c0.697,0.373,1.424,0.691,2.137,1.036
		c-0.057-1.096-0.401-1.833-0.852-2.505c-2.246-3.368-4.938-6.514-6.695-10.117c-3.743-7.689-7.291-15.48-9.332-23.889
		c-0.598-2.463-2.147-4.958-3.914-6.817c-3.497-3.687-8.512-4.863-13.272-7.181c-0.354,2.12-0.557,3.919-0.973,5.667
		c-0.412,1.723,0.108,2.845,1.504,3.923c5.146,3.973,10.211,8.054,15.299,12.103c0.635,0.506,1.233,1.061,2.006,1.728
		c-3.135,1.853-5.898,3.808-8.92,5.202c-5.779,2.669-11.158,0.872-14.313-4.656c-3.014-5.284-7.325-9.168-12.479-12.209
		c-2.832-1.672-5.728-3.236-8.596-4.846c-4.979-2.792-8.75-6.998-13.484-10.951c6.553-2.322,12.484-4.427,18.428-6.533
		c-1.274-3.05-2.733-3.773-5.338-2.852c-1.078,0.382-2.107,0.906-3.152,1.376c-1.633,0.735-2.873,0.522-3.844-1.181
		c-3.129-5.492-7.537-9.83-12.717-13.347c-5.566-3.781-11.244-7.4-16.941-10.979c-0.502-0.315-1.809-0.091-2.252,0.362
		c-4.006,4.097-8.762,4.738-14.174,3.776c-2.957-0.525-6.107-0.651-9.08-0.263c-5.678,0.744-11.273,2.098-16.935,2.99
		c-5.835,0.92-11.462,0.254-15.721-4.288c-2.466-2.631-5.292-3.453-8.479-2.74c-6.336,1.417-12.613,3.106-18.873,4.833
		c-0.982,0.271-2.28,1.18-2.522,2.048c-1.221,4.358-4.518,5.579-8.407,6.345c-2.22,0.438-4.414,1.193-6.479,2.123
		c-0.793,0.355-1.532,1.521-1.711,2.434c-0.739,3.762-1.604,4.74-5.305,5.631c-2.446,0.589-4.932,1.135-7.251,2.068
		c-1.048,0.421-2.197,1.604-2.503,2.672c-1.379,4.823-4.123,8.679-7.802,11.933c-3.836,3.396-7.575,6.942-11.704,9.946
		c-2.065,1.502-4.904,1.942-7.394,2.863c-0.124-0.231-0.248-0.462-0.372-0.694c0.657-1.448,1.172-2.984,2.004-4.324
		c1.262-2.032,0.833-3.479-0.985-4.875c-1.39-1.066-2.627-2.339-3.895-3.558c-5.004-4.811-4.982-6.81,0.126-11.617
		c2.784-2.621,5.679-5.133,8.335-7.877c0.919-0.95,1.827-2.469,1.783-3.694c-0.178-4.984,1.993-8.595,6.321-10.517
		c4.563-2.028,5.339-5.855,6.065-10.167c-3.086-1.028-5.936-1.531-9.109-0.108C124.748,57.112,99.558,75.54,79.024,99.858
		c-43.966,52.068-63.15,111.762-52.242,179.673c7.905,49.218,30.541,91.191,67.206,124.984
		c47.669,43.936,104.311,63.19,168.96,58.918c2.87-0.189,5.777-0.676,8.539-1.471c4.352-1.252,5.875-9.078,2.018-12.093
		c-11.021-8.604-21.646-17.731-32.153-26.967c-6.262-5.502-4.296-16.368,3.216-19.813c3.646-1.67,6.232-4.254,6.761-8.334
		c0.33-2.562,0.256-5.185,0.253-7.779c-0.005-3.33-0.064-3.127-3.306-3.328c-5.479-0.34-10.984-0.688-16.396-1.551
		c-5.068-0.807-9.053-3.547-11.283-8.436c-3.703-8.115-9.858-13.724-17.989-17.177c-5.489-2.332-10.988-4.674-16.606-6.661
		c-12.94-4.582-23.926-12.16-33.872-21.437c-2.744-2.559-3.776-5.533-3.12-9.305c0.301-1.717,0.117-3.711-0.474-5.354
		c-3.391-9.428-6.96-18.789-10.498-28.162c-0.401-1.063-0.833-2.186-1.535-3.049c-0.506-0.623-1.485-0.856-2.254-1.266
		c-0.136,0.811-0.546,1.688-0.363,2.42c1.204,4.822,2.541,9.609,3.825,14.412c0.566,2.115,1.111,4.233,1.666,6.352
		c-3.998-2.319-7.038-5.373-8.408-9.643c-3.06-9.535-6.245-19.047-8.811-28.719c-3.129-11.796-2.701-23.724,1.106-35.307
		c1.922-5.85,4.596-11.495,7.374-17.009c4.196-8.332,7.063-16.873,6.78-26.358c-0.09-3.016,0.461-6.11,1.132-9.076
		c1.5-6.636,3.451-13.171,4.874-19.82c2.639-12.334-0.839-18.679-12.529-23.468c-2.477-1.015-5.006-1.896-7.486-2.9
		C120.438,130.938,118.467,128.686,116.531,125.252z M436.306,148.415c-0.547-1.215-0.885-2.047-1.289-2.846
		c-2.146-4.228-4.389-8.408-6.398-12.7c-0.426-0.91-0.149-2.236,0.043-3.328c0.441-2.519,1.658-5.063,1.449-7.502
		c-0.654-7.702-5.486-12.836-11.58-16.978c-0.076-0.052-0.268,0.066-0.649,0.173c1.305,7.075,3.401,13.854,7.68,20.296
		c-3.787,1.567-7.24,2.996-11.439,4.732c2.406,2.072,4.519,3.888,6.921,5.956c-2.74,1.48-5.07,2.611-7.238,3.993
		c-0.621,0.395-1.228,1.614-1.078,2.287c1.072,4.849,2.205,9.692,3.582,14.463c1.529,5.301,4.266,9.968,8.268,13.827
		c0.541,0.521,1.22,0.898,2.297,1.679c0-1.464,0-2.292,0-3.119c0.003-5.43,0.066-10.862-0.03-16.291
		c-0.033-1.928,0.465-2.965,2.553-3.215C431.571,149.582,433.709,148.969,436.306,148.415z"/>
	<path fill="#00A9CA" d="M250.276,122.826c-1.166,2.879-2.279,5.466-3.255,8.103c-0.544,1.472-1.339,1.746-2.812,1.323
		c-6.477-1.859-8.488-4.749-7.254-11.289c0.62-3.287,1.599-6.532,2.709-9.692c0.969-2.756,2.442-3.503,5.362-3.126
		c1.734,0.226,3.521,0.488,5.133,1.123c3.031,1.193,5.433,0.376,7.812-1.577c3.239-2.661,6.904-4.499,11.147-4.986
		c4.48-0.518,8.728,0.334,12.59,2.583c9.179,5.344,18.351,10.709,27.392,16.277c5.774,3.558,7.115,6.917,4.582,13.155
		c-3.555,8.759-4.066,17.777-3.849,27.01c0.064,2.767,1.009,4.657,3.382,5.986c1.575,0.881,3.063,1.918,4.637,2.916
		c-7.072,7.074-16.9,7.329-23.754,0.735c-3.552-3.417-6.687-7.167-8.164-12.005c-1.517-4.956-4.439-9.02-7.959-12.704
		c-8.101-8.482-17.047-15.999-26.384-23.067C251.299,123.367,250.952,123.214,250.276,122.826z"/>
	<path fill="#00A9CA" d="M340.854,132.492c-2.877,3.88-5.344,7.56-8.18,10.931c-2.701,3.212-5.523,3.646-7.98,1.784
		c-2.91-2.21-3.875-6.592-1.998-9.669c2.226-3.646,5.785-5.799,9.349-7.874c0.504-0.294,1.561-0.121,2.112,0.228
		C336.338,129.266,338.418,130.797,340.854,132.492z"/>
	<path fill="#00A9CA" d="M265.621,338.594c-1.311,4.998-4.601,7.107-8.917,5.623c-4.035-1.387-7.932-3.211-11.815-5
		c-4.165-1.92-8.259-3.998-12.352-6.07c-0.667-0.338-1.17-1-1.75-1.51c0.156-0.287,0.313-0.574,0.468-0.861
		C242.663,333.371,254.069,335.967,265.621,338.594z"/>
	<path fill="#00A9CA" d="M284.901,348.273c-3.982-0.354-7.967-0.709-11.949-1.067c-1.137-0.104-2.291-0.138-3.397-0.377
		c-0.662-0.146-1.695-0.558-1.771-0.986c-0.14-0.783,0.051-1.896,0.555-2.479c3.095-3.577,7.683-4.075,11.433-1.184
		c2.018,1.557,3.791,3.428,5.676,5.156C285.263,347.648,285.083,347.961,284.901,348.273z"/>
</g>
</svg>
